<?xml version="1.0" encoding="UTF-8"?>
<svg version="1.1" xmlns="http://www.w3.org/2000/svg" width="500" height="500">
<path d="M0 0 C4.39089063 1.56005761 6.69275783 5.00678042 9.4375 8.5625 C9.95900635 9.22580322 10.4805127 9.88910645 11.01782227 10.57250977 C15.42439469 16.19776769 19.74403554 21.89051268 24.06542969 27.58129883 C28.37390329 33.23536756 32.82756012 38.75801043 37.33129883 44.25708008 C41.50418544 49.36135245 45.54313799 54.55247965 49.54296875 59.79296875 C52.1440258 63.19854123 54.78691993 66.57039565 57.4375 69.9375 C57.89527832 70.51902832 58.35305664 71.10055664 58.82470703 71.69970703 C59.75259621 72.8779014 60.68065654 74.05596099 61.60888672 75.23388672 C63.90874237 78.15371048 66.20415945 81.07701893 68.5 84 C69.4166451 85.16668361 70.33331177 86.33335027 71.25 87.5 C112.5 140 112.5 140 153.75 192.5 C154.20431396 193.07814453 154.65862793 193.65628906 155.12670898 194.25195312 C156.03796694 195.41188325 156.94893976 196.57203745 157.85961914 197.73242188 C160.23168018 200.75411238 162.60943226 203.77107417 164.99609375 206.78125 C165.73472656 207.71517578 165.73472656 207.71517578 166.48828125 208.66796875 C167.42262746 209.84912339 168.35869745 211.02891749 169.296875 212.20703125 C172.07098923 215.71867434 174.50377696 219.25566545 177 223 C31.8 223 -113.4 223 -263 223 C-256.25569177 212.88353765 -256.25569177 212.88353765 -253.625 209.4140625 C-253.03984619 208.63877197 -252.45469238 207.86348145 -251.85180664 207.06469727 C-251.24071045 206.25959717 -250.62961426 205.45449707 -250 204.625 C-244.97597607 197.96948551 -239.99087963 191.28912958 -235.0625 184.5625 C-229.36970653 176.80026407 -223.54643411 169.14381796 -217.69311523 161.50219727 C-214.34401432 157.11762949 -211.02815596 152.71951882 -207.84057617 148.21582031 C-207.03959841 147.08521744 -206.23002228 145.96065002 -205.41137695 144.84277344 C-203.42691503 142.12024101 -201.64248131 139.39603601 -200.05078125 136.43359375 C-197.42087294 131.88722869 -194.68799026 127.97104431 -189.623703 126.14155579 C-186.7168449 125.46548059 -183.8170377 124.94284256 -180.87109375 124.46484375 C-178.61757127 124.05782663 -176.36407279 123.65067656 -174.1105957 123.2434082 C-172.94146637 123.04075348 -171.77233704 122.83809875 -170.56777954 122.62930298 C-165.8847651 121.80328923 -161.2210612 120.88906869 -156.55509949 119.97233582 C-151.9181749 119.0631592 -147.27656908 118.17928364 -142.63476562 117.29541016 C-140.25493868 116.84083275 -137.87572273 116.38304711 -135.49707031 115.92236328 C-132.00198622 115.24572784 -128.50517692 114.57879689 -125.0078125 113.9140625 C-123.94241241 113.70584869 -122.87701233 113.49763489 -121.77932739 113.28311157 C-120.79914642 113.09896698 -119.81896545 112.91482239 -118.80908203 112.72509766 C-117.94960968 112.56030914 -117.09013733 112.39552063 -116.20462036 112.22573853 C-114 112 -114 112 -111 113 C-117.6 122.9 -124.2 132.8 -131 143 C-127.37992553 140.10394042 -124.62825843 137.65441569 -121.625 134.25 C-120.84382812 133.36828125 -120.06265625 132.4865625 -119.2578125 131.578125 C-118.51273438 130.72734375 -117.76765625 129.8765625 -117 129 C-116.39929688 128.31421875 -115.79859375 127.6284375 -115.1796875 126.921875 C-114.05618694 125.63638134 -112.93379756 124.34991572 -111.8125 123.0625 C-109.72788836 120.69035571 -107.61571356 118.34443935 -105.5 116 C-100.70092208 110.67665307 -95.9592205 105.31136661 -91.3203125 99.84765625 C-85.72558261 93.26681821 -80.04264888 86.80234102 -74.15625 80.48046875 C-70.94030561 77.02630626 -67.79482045 73.52564408 -64.70703125 69.95703125 C-61.98035033 66.83101949 -59.19028547 63.76240485 -56.40625 60.6875 C-54.48087007 58.53707566 -52.58055425 56.37006894 -50.6875 54.19140625 C-47.04585476 50.02268078 -43.29268995 45.96869932 -39.5 41.9375 C-38.87480469 41.26912109 -38.24960938 40.60074219 -37.60546875 39.91210938 C-34.53132507 36.63747806 -31.42569555 33.40689762 -28.23828125 30.2421875 C-25.94764823 27.9673231 -23.76171419 25.66425711 -21.6875 23.1875 C-18.14246848 19.06889035 -14.30565555 15.28970861 -10.44140625 11.47265625 C-7.12881966 8.11766855 -4.05974713 4.58374052 -1 1 C-0.67 0.67 -0.34 0.34 0 0 Z M0 14 C-6.46658283 21.83362766 -11.98986309 30.38888649 -17.58203125 38.8515625 C-21.40049616 44.62263871 -25.29175041 50.34341551 -29.1875 56.0625 C-30.26523682 57.64514648 -30.26523682 57.64514648 -31.36474609 59.25976562 C-32.83816277 61.4229988 -34.31179724 63.58608363 -35.78564453 65.74902344 C-38.6890915 70.01168053 -41.58836654 74.27716631 -44.48754883 78.54272461 C-51.0970157 88.26705845 -57.71526635 97.98535202 -64.34082031 107.69873047 C-71.1850481 117.73440834 -78.01383863 127.78057254 -84.84277344 137.82666016 C-89.10114264 144.09083885 -93.36074378 150.35417988 -97.62011719 156.61767578 C-101.1872592 161.86332801 -104.75409662 167.10918684 -108.3203125 172.35546875 C-109.03324463 173.40404053 -109.74617676 174.4526123 -110.48071289 175.53295898 C-111.89713906 177.61671653 -113.31300274 179.70085656 -114.72827148 181.78540039 C-118.26967905 186.99875976 -121.82414463 192.20243484 -125.40234375 197.390625 C-126.10214355 198.40809814 -126.80194336 199.42557129 -127.52294922 200.47387695 C-128.85535679 202.40996691 -130.19146422 204.34351726 -131.53173828 206.27416992 C-132.12067871 207.13115479 -132.70961914 207.98813965 -133.31640625 208.87109375 C-133.83662354 209.62318115 -134.35684082 210.37526855 -134.89282227 211.15014648 C-136.17118762 212.92670469 -136.17118762 212.92670469 -136 215 C-71.65 215 -7.3 215 59 215 C54.29396468 208.58530681 54.29396468 208.58530681 49.0625 203 C45.87979744 199.9012105 42.93838244 196.6939606 40.04296875 193.328125 C36.92664222 189.77682364 33.71751585 186.3105883 30.46923828 182.87963867 C28.10785923 180.37071943 25.95413342 177.93603048 23.94140625 175.12890625 C22.08226362 172.56608813 20.58400881 170.82954515 18 169 C15.11929585 168.68472261 15.11929585 168.68472261 11.92626953 169.11694336 C10.67799377 169.24189178 9.42971802 169.36684021 8.14361572 169.49557495 C6.76199463 169.66026467 5.38079549 169.82852594 4 170 C3.29150658 170.08571888 2.58301315 170.17143776 1.85305023 170.25975418 C-3.75478898 170.94839687 -9.34973019 171.72287542 -14.9453125 172.50390625 C-16.73169601 172.74957028 -18.51814552 172.99475487 -20.30465698 173.23948669 C-24.96252247 173.87849409 -29.61969736 174.52238499 -34.27667236 175.16784668 C-41.76339511 176.20517818 -49.25084163 177.23720429 -56.73888779 178.26493645 C-59.34499586 178.62370031 -61.95060105 178.9859625 -64.55618286 179.348526 C-66.14827663 179.56785248 -67.74038791 179.78705195 -69.33251953 180.00610352 C-70.05355362 180.10739059 -70.77458771 180.20867767 -71.51747131 180.31303406 C-74.73060651 180.75206346 -77.74643919 181 -81 181 C-75.15616981 177.03650875 -75.15616981 177.03650875 -72.57463074 175.29003906 C-68.79703037 172.73399406 -65.02536433 170.16987304 -61.26342773 167.59082031 C-54.3721117 162.88132596 -47.48880303 158.21746224 -40.30804443 153.95721436 C-37.53011812 152.309061 -34.77838978 150.61948685 -32.02618408 148.92883301 C-30.73400451 148.15311559 -29.42839843 147.39926932 -28.10955811 146.6697998 C-27.16853241 146.14827332 -27.16853241 146.14827332 -26.20849609 145.61621094 C-25.66027191 145.32196228 -25.11204773 145.02771362 -24.54721069 144.72454834 C-20.19687706 141.72142161 -16.97170413 139.36071544 -15.89358521 134.07164001 C-15.68085261 132.55350348 -15.49395537 131.03159451 -15.32861328 129.50756836 C-15.21839183 128.67726703 -15.10817038 127.84696569 -14.99460888 126.99150372 C-14.76206624 125.22543615 -14.53978319 123.45799146 -14.32706642 121.68942642 C-14.00788997 119.06487825 -13.65479623 116.44749355 -13.28813171 113.82919312 C-12.5260258 108.37526156 -11.80279187 102.91655729 -11.08203125 97.45703125 C-10.81747877 95.46633759 -10.55271949 93.47567139 -10.2877655 91.48503113 C-9.60021601 86.31522179 -8.91542368 81.14505112 -8.23126221 75.97479248 C-7.52893059 70.67111904 -6.82391292 65.36780269 -6.11914062 60.06445312 C-4.74350743 49.70997754 -3.37079515 39.35511711 -2 29 C0.59804506 31.49986214 2.26523648 33.95178101 4.046875 37.1015625 C4.93149414 38.65327148 4.93149414 38.65327148 5.83398438 40.23632812 C6.46626953 41.35458984 7.09855469 42.47285156 7.75 43.625 C9.1059165 46.00458856 10.46638165 48.38155437 11.828125 50.7578125 C12.17520508 51.363974 12.52228516 51.9701355 12.87988281 52.59466553 C16.3354932 58.61410941 19.90862209 64.56070541 23.5 70.5 C28.63728998 79.00909822 33.67323291 87.56910373 38.625 96.1875 C43.47328157 104.61992896 48.33007243 113.0466074 53.25 121.4375 C53.78705566 122.36135498 54.32411133 123.28520996 54.87744141 124.23706055 C55.37679199 125.0856665 55.87614258 125.93427246 56.390625 126.80859375 C57.0407959 127.91932251 57.0407959 127.91932251 57.70410156 129.05249023 C58.97352747 130.9602164 60.32284386 132.44688481 62 134 C60.60074306 129.41286694 58.72549032 125.24027582 56.5078125 121.00390625 C56.16602966 120.34263229 55.82424683 119.68135834 55.47210693 119.00004578 C54.36055606 116.85201619 53.24286361 114.70725009 52.125 112.5625 C51.3474614 111.0630109 50.57028356 109.56333468 49.79345703 108.06347656 C47.53479895 103.70594197 45.26838638 99.35247643 43 95 C42.42830078 93.90220215 41.85660156 92.8044043 41.26757812 91.67333984 C39.33401306 87.96200332 37.39876951 84.25155787 35.45947266 80.54321289 C31.12748872 72.25853296 26.83417094 63.9540403 22.54327393 55.64804077 C17.64260737 46.16265141 12.71890918 36.68953334 7.76757812 27.23046875 C5.47109347 22.83945979 3.19558081 18.44239184 1 14 C0.67 14 0.34 14 0 14 Z M62 134 C63 136 63 136 63 136 Z M63 136 C64 138 64 138 64 138 Z M-133 145 C-133 148 -133 148 -133 148 Z " fill="#71AEFF" transform="translate(293,0)"/>
<path d="M0 0 C145.2 0 290.4 0 440 0 C440 1.98 440 3.96 440 6 C421.19 6 402.38 6 383 6 C382.34 7.98 381.68 9.96 381 12 C380.37992882 13.40222205 379.72860082 14.79116315 379.04248047 16.16227722 C378.6587175 16.93399765 378.27495453 17.70571808 377.87956238 18.50082397 C377.46297867 19.32837189 377.04639496 20.1559198 376.6171875 21.00854492 C376.17454056 21.89573715 375.73189362 22.78292938 375.27583313 23.69700623 C373.81278873 26.62679513 372.34400504 29.55366457 370.875 32.48046875 C369.84777078 34.53373335 368.82083877 36.58714667 367.79418945 38.64070129 C365.63789079 42.95173431 363.47891368 47.26141149 361.31787109 51.57006836 C358.57511745 57.03873161 355.83751913 62.50995404 353.10180664 67.98214245 C350.9773105 72.23085974 348.85071166 76.4785218 346.72344971 80.72585487 C345.71528878 82.73903562 344.7075833 84.75244452 343.70037842 86.76610374 C338.3503675 97.45778832 332.94583433 108.11337127 327.33744812 118.67228222 C324.81964597 123.41444945 322.38417968 128.18912357 320 133 C312.97481339 132.32646876 306.3255596 130.69695944 299.5 128.9375 C298.39140625 128.65583984 297.2828125 128.37417969 296.140625 128.08398438 C293.4259563 127.39361604 290.71249362 126.69885625 288 126 C287.50971313 127.16402344 287.50971313 127.16402344 287.00952148 128.3515625 C285.7709184 131.27176474 284.51874252 134.18567376 283.25756836 137.09619141 C282.71801663 138.34877384 282.18368234 139.60361879 281.6550293 140.86083984 C276.23771426 153.72504112 269.06570239 162.16705005 257.81176758 170.30566406 C247.07254209 178.32995714 242.89439737 187.17425029 238.25 199.5 C237.51059443 201.37240285 236.76718386 203.2432285 236.02001953 205.11254883 C234.45914344 209.03103057 232.91912348 212.95680369 231.39355469 216.88916016 C228.95197816 223.15804218 226.41315437 229.38481395 223.8515625 235.60546875 C223.43217407 236.62395905 223.01278564 237.64244934 222.58068848 238.69180298 C221.7516023 240.70414747 220.92226076 242.71638677 220.09265137 244.72851562 C218.15240364 249.44346348 216.22797044 254.16483062 214.3046875 258.88671875 C213.96813141 259.71270065 213.63157532 260.53868256 213.28482056 261.38969421 C212.52298123 263.25970145 211.76145075 265.12983451 211 267 C210.34 267 209.68 267 209 267 C200.74420649 236.51325119 192.75691278 205.95994593 184.84509277 175.38232422 C182.42219642 166.01922292 179.99677907 156.65677502 177.57034492 147.29459 C176.733075 144.0625637 175.89697831 140.8302356 175.0610199 137.59786987 C174.55105452 135.62887573 174.04105192 133.65989122 173.53100586 131.69091797 C173.30300797 130.80802094 173.07501007 129.9251239 172.84010315 129.01547241 C171.62350497 124.32355818 170.35369457 119.65427131 169 115 C168.42556152 115.04189453 167.85112305 115.08378906 167.25927734 115.12695312 C164.63191049 115.29424064 162.00566077 115.39755424 159.375 115.5 C158.01955078 115.60054687 158.01955078 115.60054687 156.63671875 115.703125 C150.13243199 115.89303118 150.13243199 115.89303118 147.28735352 113.64941406 C145.62791699 111.52564879 144.32299109 109.3492199 143 107 C142.41444336 106.03449219 141.82888672 105.06898438 141.22558594 104.07421875 C139.53734239 101.26588234 137.88554291 98.43982786 136.2520752 95.59936523 C134.40881644 92.39728173 132.54518867 89.20707159 130.68359375 86.015625 C130.10933151 85.03009644 130.10933151 85.03009644 129.52346802 84.0246582 C125.6795448 77.43490344 121.79152536 70.87232173 117.85488892 64.33752441 C117.12457459 63.12294946 116.39696359 61.90674448 115.67221069 60.68884277 C114.65839231 58.98621463 113.63407273 57.28985285 112.609375 55.59375 C112.03155273 54.63146484 111.45373047 53.66917969 110.85839844 52.67773438 C106.86959757 46.93033974 102.45798868 43.86178475 96.328125 40.828125 C95.60510193 40.46023865 94.88207886 40.09235229 94.137146 39.71331787 C91.84595374 38.54967038 89.54835765 37.3994198 87.25 36.25 C84.93881662 35.0836039 82.62902781 33.9145069 80.32000732 32.74383545 C78.88703523 32.0184603 77.45254265 31.29607967 76.01641846 30.57696533 C71.10852223 28.10852223 71.10852223 28.10852223 70 27 C69.59573652 24.41507439 69.24606722 21.84653604 68.9375 19.25 C68.80118164 18.17492187 68.80118164 18.17492187 68.66210938 17.078125 C68.20403377 13.33085992 68 9.78843379 68 6 C45.56 6 23.12 6 0 6 C0 4.02 0 2.04 0 0 Z M75 6 C74.43893932 15.43414287 74.43893932 15.43414287 77.41699219 23.94946289 C79.54991556 25.25220817 81.6637061 26.11095576 84 27 C85.97176114 28.0458465 87.93478912 29.1082599 89.890625 30.18359375 C92.00818199 31.27258553 94.12802131 32.35714953 96.25 33.4375 C97.32507813 34.00404297 98.40015625 34.57058594 99.5078125 35.15429688 C100.54164063 35.67958984 101.57546875 36.20488281 102.640625 36.74609375 C103.57422852 37.22747803 104.50783203 37.7088623 105.46972656 38.20483398 C107.9450666 39.25403465 107.9450666 39.25403465 110.17553711 38.27661133 C112.76033115 36.46798186 115.00686837 34.40235767 117.3125 32.25 C121.47044888 28.40417596 125.67308765 24.65383709 130 21 C128.64559532 19.33304039 127.27472216 17.67788504 125.84375 16.07617188 C124 14 124 14 122.40625 11.87695312 C118.90817711 7.90085968 115.8029242 5.86072727 110.52124023 5.35546875 C105.15345466 5.11352573 99.8037182 5.30116433 94.4375 5.5 C92.55150789 5.5401792 90.66543344 5.57667216 88.77929688 5.609375 C84.18414672 5.69702197 79.59298833 5.83477316 75 6 Z M125 6 C129.37372561 11.11693401 129.37372561 11.11693401 134 16 C138.02093805 15.85766591 141.43028826 13.08667595 144.75 11 C145.35199219 10.63132813 145.95398438 10.26265625 146.57421875 9.8828125 C148.06969566 8.95364998 149.53767895 7.98051585 151 7 C151 6.67 151 6.34 151 6 C142.42 6 133.84 6 125 6 Z M141 21 C142.72148248 24.69839208 144.65136076 26.67936297 147.75 29.375 C155.24013151 36.01927771 162.22679234 43.17219762 169.25683594 50.29443359 C175.81826424 56.99584224 175.81826424 56.99584224 183 63 C183.66 63 184.32 63 185 63 C185.30067383 62.41847168 185.60134766 61.83694336 185.91113281 61.23779297 C192.11004739 49.26400144 198.38318385 37.34022929 204.90136719 25.53662109 C210.96800726 16.20145138 210.96800726 16.20145138 214 6 C174.20638978 2.32168529 174.20638978 2.32168529 141 21 Z M222 6 C220.83984375 8.19914063 219.6796875 10.39828125 218.484375 12.6640625 C209.76860194 29.17192075 201.01285219 45.6517325 192 62 C193.98971983 63.26477903 193.98971983 63.26477903 196.29055786 62.43690491 C197.24542084 62.11491623 198.20028381 61.79292755 199.18408203 61.46118164 C200.26505157 61.10073257 201.34602112 60.74028351 202.45974731 60.36891174 C203.63060883 59.97002243 204.80147034 59.57113312 206.0078125 59.16015625 C207.20356903 58.75921249 208.39932556 58.35826874 209.63131714 57.94517517 C212.81262628 56.87697232 215.99161116 55.80233004 219.16967773 54.72454834 C222.41208056 53.62671018 225.65732452 52.53734041 228.90234375 51.44726562 C235.27088696 49.30600228 241.63650241 47.15620873 248 45 C247.43197994 39.5972654 246.48051074 34.66651516 244.93359375 29.4375 C244.73524429 28.76074219 244.53689484 28.08398438 244.33253479 27.38671875 C243.70663753 25.25605716 243.07224248 23.12804118 242.4375 21 C242.00789533 19.54313619 241.57885383 18.08610618 241.15039062 16.62890625 C240.1077816 13.08363224 239.05368164 9.54207324 238 6 C232.72 6 227.44 6 222 6 Z M245 6 C247.9272955 23.87604397 247.9272955 23.87604397 258.19458008 47.06298828 C259.04431396 47.56040527 259.89404785 48.05782227 260.76953125 48.5703125 C262.21150879 49.44042969 262.21150879 49.44042969 263.68261719 50.328125 C264.71547852 50.92109375 265.74833984 51.5140625 266.8125 52.125 C268.98149067 53.41755753 271.14943494 54.71187237 273.31640625 56.0078125 C274.42258301 56.66168945 275.52875977 57.31556641 276.66845703 57.98925781 C279.94133303 59.96459174 283.14549936 62.01760434 286.33984375 64.1171875 C287.33459717 64.76929199 288.32935059 65.42139648 289.35424805 66.09326172 C291.25531282 67.34503778 293.15150063 68.60425844 295.04223633 69.87158203 C295.89970459 70.42958496 296.75717285 70.98758789 297.640625 71.5625 C298.38860352 72.05878906 299.13658203 72.55507813 299.90722656 73.06640625 C301.94088884 74.17820179 301.94088884 74.17820179 304.1015625 73.80712891 C307.28654793 72.45301859 309.41271497 69.85012492 311.75 67.375 C314.89229344 64.09138648 318.04463371 60.92071435 321.51269531 57.97851562 C326.93792925 53.25659867 331.98564235 48.15886095 337.0625 43.0703125 C338.10467206 42.02881541 339.1469924 40.9874667 340.18945312 39.94625854 C342.35595505 37.78121993 344.52066512 35.61441026 346.68408203 33.44628906 C349.4627209 30.66190348 352.24589323 27.88209907 355.03038025 25.10356331 C357.17506138 22.96248238 359.31737176 20.8190422 361.45895386 18.67486191 C362.48532648 17.64782108 363.51244554 16.62152566 364.54031372 15.5959816 C365.96678733 14.17203094 367.3897397 12.74455539 368.8125 11.31689453 C369.62332031 10.50527863 370.43414062 9.69366272 371.26953125 8.85745239 C373.11360901 7.30115954 373.11360901 7.30115954 373 6 C330.76 6 288.52 6 245 6 Z M366 23 C365.56253448 23.38598862 365.12506897 23.77197723 364.67434692 24.16966248 C360.59982522 27.75090624 356.4880197 31.28171499 352.34326172 34.78149414 C345.36610921 40.70724127 338.56525146 46.8149717 331.875 53.0625 C331.28369545 53.61410545 330.6923909 54.16571091 330.08316803 54.73403168 C314.76365415 68.21315605 314.76365415 68.21315605 306.6484375 86.06689453 C306.60336423 97.63075396 311.92006244 108.42648349 318 118 C318.66 118 319.32 118 320 118 C320.28085449 117.4330542 320.56170898 116.8661084 320.85107422 116.28198242 C322.19001699 113.5826412 323.53252286 110.8850851 324.875 108.1875 C325.31585938 107.29740234 325.75671875 106.40730469 326.2109375 105.49023438 C329.23336704 99.42438619 332.35509997 93.4179188 335.52734375 87.4296875 C341.47446197 76.18245615 347.21246748 64.83118125 352.91772461 53.4597168 C354.11379576 51.07928936 355.3125346 48.70046551 356.51635742 46.32397461 C358.27378782 42.85458653 360.01832106 39.3788065 361.76171875 35.90234375 C362.30422775 34.83483383 362.84673676 33.76732391 363.40568542 32.66746521 C363.89402359 31.68786331 364.38236176 30.70826141 364.88549805 29.69897461 C365.31944382 28.83694931 365.75338959 27.97492401 366.20048523 27.08677673 C366.4643251 26.39814041 366.72816498 25.70950409 367 25 C366.505 24.01 366.505 24.01 366 23 Z M127.75 31.6875 C123.60607543 35.60755738 119.41932477 39.39088477 115 43 C118.0127344 48.20381396 121.951811 52.08234891 126.26953125 56.2421875 C129.02775327 59.0280312 131.58096304 61.92768384 134.14575195 64.88964844 C137.23625227 68.40699995 140.46513217 71.79133444 143.6875 75.1875 C145.09550229 76.67796025 146.50304986 78.16885017 147.91015625 79.66015625 C148.59996582 80.39121582 149.28977539 81.12227539 150.00048828 81.87548828 C156.81595497 89.11702566 163.61469747 96.37311087 170 104 C173.65566025 100.34433975 174.27811329 94.64251388 175.6237793 89.73364258 C176.18350193 87.70201185 176.7619303 85.6763503 177.34179688 83.65039062 C177.70167814 82.3544875 178.06043876 81.05827254 178.41796875 79.76171875 C178.74563232 78.58569092 179.0732959 77.40966309 179.41088867 76.19799805 C180.00419783 72.977212 180.01586876 71.08828136 179 68 C176.77122235 65.24805794 176.77122235 65.24805794 173.9375 62.625 C173.01839844 61.73039062 172.09929687 60.83578125 171.15234375 59.9140625 C168.95639239 57.84920747 166.69580184 55.88124663 164.40234375 53.92578125 C157.90639464 48.28169659 151.98540342 42.01077857 145.96533203 35.86938477 C144.36921101 34.24325081 142.76707677 32.62324105 141.1640625 31.00390625 C140.6745108 30.50089493 140.18495911 29.99788361 139.68057251 29.47962952 C138.49116463 28.28138007 137.24975604 27.13516637 136 26 C132.45881018 26 130.2053604 29.34474561 127.75 31.6875 Z M238.28491211 54.32348633 C237.33059799 54.63743851 236.37628387 54.95139069 235.39305115 55.27485657 C234.36486771 55.62372421 233.33668427 55.97259186 232.27734375 56.33203125 C231.22092178 56.68383957 230.16449982 57.03564789 229.07606506 57.39811707 C226.84117513 58.14464207 224.60776355 58.89560518 222.37573242 59.65063477 C218.95145724 60.8077835 215.52214022 61.94887386 212.09179688 63.08789062 C209.92416054 63.81415387 207.75683201 64.5413366 205.58984375 65.26953125 C204.55963608 65.6123262 203.52942841 65.95512115 202.46800232 66.30830383 C201.51684036 66.63171249 200.56567841 66.95512115 199.58569336 67.28833008 C198.74646835 67.57114334 197.90724335 67.8539566 197.04258728 68.14533997 C194.82607258 68.92101506 194.82607258 68.92101506 193 71 C193.49701416 71.31114746 193.99402832 71.62229492 194.50610352 71.94287109 C196.85962259 73.41804981 199.21130984 74.89611212 201.5625 76.375 C202.84640625 77.18179199 202.84640625 77.18179199 204.15625 78.00488281 C210.31548743 81.89215785 216.39300809 85.88300682 222.36547852 90.05224609 C225.84894718 92.47753584 225.84894718 92.47753584 230 93 C235.28 80.13 240.56 67.26 246 54 C242.51915148 52.83971716 241.67409136 53.19206691 238.28491211 54.32348633 Z M252 55 C249.54216361 60.73974414 247.10496075 66.48792766 244.68188477 72.24243164 C243.85523073 74.19886242 243.02387927 76.15331531 242.18774414 78.10571289 C240.98643323 80.91305443 239.80221599 83.72708426 238.62109375 86.54296875 C238.24407822 87.41398727 237.86706268 88.2850058 237.47862244 89.18241882 C235.51624907 93.86696795 235.51624907 93.86696795 235.11132812 98.8605957 C236.05082258 101.12235116 237.0602984 102.78201328 238.59765625 104.6875 C239.14437988 105.37618164 239.69110352 106.06486328 240.25439453 106.77441406 C240.85106934 107.50885742 241.44774414 108.24330078 242.0625 109 C243.33315718 110.59806373 244.60263911 112.19706245 245.87109375 113.796875 C246.54124512 114.63798828 247.21139648 115.47910156 247.90185547 116.34570312 C251.53185776 120.93790523 255.07815518 125.59346144 258.625 130.25 C259.29926025 131.13042969 259.97352051 132.01085937 260.66821289 132.91796875 C263.92881559 137.19352102 267.08901684 141.47837134 270 146 C274.01831932 142.39091363 275.70933484 137.72769416 277.875 132.875 C278.31585938 131.96234375 278.75671875 131.0496875 279.2109375 130.109375 C279.613125 129.20445312 280.0153125 128.29953125 280.4296875 127.3671875 C280.99018799 126.14684814 280.99018799 126.14684814 281.56201172 124.90185547 C282.65125349 117.68517338 277.74988013 109.91543933 274.796875 103.49609375 C274.3959967 102.61454117 273.99511841 101.73298859 273.58209229 100.82472229 C272.30896517 98.02702715 271.02978411 95.23215532 269.75 92.4375 C268.07629893 88.77036235 266.40506636 85.10210341 264.734375 81.43359375 C264.33077759 80.54844086 263.92718018 79.66328796 263.51135254 78.75131226 C259.92454172 70.8700457 256.4389499 62.94674352 253 55 C252.67 55 252.34 55 252 55 Z M261 57 C262.64692575 62.39068518 264.9072615 67.4122694 267.24609375 72.52734375 C267.65787369 73.43448624 268.06965363 74.34162872 268.49391174 75.27626038 C269.80563389 78.16462613 271.12139566 81.05112875 272.4375 83.9375 C273.74925027 86.82065042 275.0601501 89.70418476 276.37037659 92.58802795 C277.18404521 94.37825379 277.99871953 96.16802298 278.81455994 97.95726013 C280.93476706 102.6149624 283.00461173 107.28741965 285 112 C289.17938232 109.91030884 290.52919162 103.40471314 292.33276367 99.18139648 C293.18204065 97.20023536 294.05023077 95.22812856 294.91992188 93.25585938 C295.4621165 91.99790334 296.00317006 90.73945476 296.54296875 89.48046875 C297.03821045 88.33473389 297.53345215 87.18899902 298.04370117 86.00854492 C299.11093546 83.18066823 299.11093546 83.18066823 298.99536133 80.82495117 C297.45571375 78.00207513 295.27294461 76.95233504 292.53125 75.3203125 C291.40203125 74.63839844 290.2728125 73.95648438 289.109375 73.25390625 C287.90654699 72.54376756 286.70342 71.83413503 285.5 71.125 C283.74808586 70.07820711 281.99831774 69.02790955 280.24902344 67.97674561 C278.5531749 66.95847726 276.85472754 65.94454114 275.15625 64.93066406 C271.58239724 62.74455425 268.12014274 60.43009999 264.68945312 58.02685547 C263.04466087 56.82686982 263.04466087 56.82686982 261 57 Z M133 74 C134.67428044 78.71758578 137.13518396 82.84498428 139.6875 87.125 C140.13085693 87.87330078 140.57421387 88.62160156 141.03100586 89.39257812 C146.32896256 99.23078787 146.32896256 99.23078787 153 108 C157.35713932 108.24663053 160.20129266 108.12157386 164 106 C163.43152344 105.443125 162.86304688 104.88625 162.27734375 104.3125 C157.93835994 100.02422218 153.78787448 95.67096044 149.8203125 91.0390625 C147.04452244 87.9297011 144.05495943 85.04451637 141.0859375 82.12109375 C139.28366679 80.28844769 137.62139322 78.42909572 136 76.4375 C135.34 75.633125 134.68 74.82875 134 74 C133.67 74 133.34 74 133 74 Z M187 75 C185.54792712 79.09010018 184.10570557 83.18349775 182.67260742 87.28027344 C182.18345738 88.67413175 181.69160375 90.06704431 181.19702148 91.45898438 C180.48753312 93.45722243 179.78776298 95.45863411 179.08984375 97.4609375 C178.66566162 98.66540527 178.24147949 99.86987305 177.80444336 101.11083984 C176.67649906 103.91194717 176.67649906 103.91194717 178 106 C192.52 103.03 207.04 100.06 222 97 C218.49087295 94.19269836 215.24524352 91.79222784 211.47265625 89.43359375 C210.43302734 88.78326172 209.39339844 88.13292969 208.32226562 87.46289062 C207.24654297 86.79451172 206.17082031 86.12613281 205.0625 85.4375 C203.99064453 84.76525391 202.91878906 84.09300781 201.81445312 83.40039062 C196.95765581 80.37203465 192.1529549 77.50302681 187 75 Z M303 89 C298.71 98.57 294.42 108.14 290 118 C292.8120281 119.8746854 294.464468 120.51369289 297.66796875 121.2890625 C299.00698242 121.61777344 299.00698242 121.61777344 300.37304688 121.953125 C301.76620117 122.28570312 301.76620117 122.28570312 303.1875 122.625 C304.12787109 122.85445312 305.06824219 123.08390625 306.03710938 123.3203125 C308.35683851 123.88552569 310.67776258 124.44519925 313 125 C310.23463843 112.93437216 307.20248692 100.95682618 304 89 C303.67 89 303.34 89 303 89 Z M220.04785156 103.80444336 C218.57677948 104.10486794 218.57677948 104.10486794 217.07598877 104.41136169 C216.02481873 104.63526077 214.97364868 104.85915985 213.890625 105.08984375 C212.80867859 105.31321915 211.72673218 105.53659454 210.61199951 105.76673889 C207.15624479 106.48216301 203.70316143 107.20967244 200.25 107.9375 C197.90771789 108.42462608 195.56527172 108.91096397 193.22265625 109.39648438 C187.4798356 110.58851636 181.73916155 111.79048083 176 113 C183.88450113 144.97441602 192.03443061 176.87552984 200.3125 208.75 C200.55248592 209.67407024 200.79247185 210.59814049 201.03973007 211.55021286 C204.02263356 223.03447839 207.00946138 234.51772041 210 246 C212.59201886 243.70590207 213.79061988 241.59576298 215.08129883 238.39941406 C215.46212112 237.46703918 215.84294342 236.53466431 216.23530579 235.57403564 C216.63847519 234.56476013 217.04164459 233.55548462 217.45703125 232.515625 C217.88247726 231.46783875 218.30792328 230.42005249 218.7462616 229.34051514 C220.10883445 225.97985646 221.46075918 222.61502818 222.8125 219.25 C223.71089737 217.02966813 224.60997864 214.80961285 225.50976562 212.58984375 C227.24262564 208.31320115 228.96406078 204.03221432 230.67822266 199.74804688 C232.07014203 196.27751938 233.49079368 192.82499221 234.97412109 189.39257812 C235.26010666 188.71894226 235.54609222 188.0453064 235.84074402 187.35125732 C236.56459252 185.65354016 237.30426326 183.96259098 238.0456543 182.27246094 C240.66684665 173.2843662 238.23071141 163.7366631 236.8125 154.68359375 C236.58771207 153.21681018 236.36351942 151.74993528 236.13989258 150.28297424 C235.55397378 146.45002878 234.96005458 142.618366 234.36437988 138.78692627 C233.75625009 134.86586427 233.1558064 130.94362616 232.5546875 127.02148438 C231.37725085 119.34649417 230.19134775 111.67284455 229 104 C225.6994773 102.925635 223.42634077 103.0991402 220.04785156 103.80444336 Z M237 113 C238.40128556 125.73791549 240.19143163 138.39544299 242.125 151.0625 C242.40520354 152.91207067 242.68515278 154.76167988 242.96484375 156.61132812 C243.64031121 161.07466659 244.31917288 165.53747608 245 170 C248.53899193 168.3119492 251.29001903 166.26374655 254.3125 163.75 C255.75496094 162.55310547 255.75496094 162.55310547 257.2265625 161.33203125 C260.50387737 158.5763172 263.76420722 155.80435374 267 153 C263.98134307 147.3631959 260.41957542 142.49185283 256.4375 137.5 C251.23605211 130.91035791 246.17364117 124.24793044 241.28881836 117.41992188 C240.21488489 115.93025235 239.1108058 114.46238123 238 113 C237.67 113 237.34 113 237 113 Z " fill="#71AEFF" transform="translate(30,233)"/>
</svg>
